<svg width="80" height="26" viewBox="0 0 80 26" fill="none" xmlns="http://www.w3.org/2000/svg">
<g clip-path="url(#clip0_3802_16619)">
<path fill-rule="evenodd" clip-rule="evenodd" d="M6.06917 3.95049C6.29905 4.30827 7.24609 7.52012 7.38531 8.14662L4.78702 8.12396L6.06917 3.95049ZM14.5942 0.0927114C13.3363 0.463434 13.3412 1.7812 13.3412 3.18153C13.3412 5.45767 13.2489 9.74769 13.3444 11.76C13.4561 14.13 16.09 14.3728 16.7635 12.5143C17.0403 11.7502 16.9173 7.24167 16.9173 6.25415C16.9173 4.87487 16.982 3.33046 16.9092 1.97061C16.8428 0.732168 15.9977 -0.321721 14.5925 0.0910925L14.5942 0.0927114ZM19.1837 3.78699C17.186 3.79832 17.1423 6.05827 19.1837 6.20559V10.8291C19.1837 11.577 19.0946 12.2424 19.4168 12.8495C20.0579 14.0604 21.9196 13.9454 22.436 12.9013C22.9168 11.9299 22.4538 8.04301 22.6724 6.20721C23.7538 6.20721 24.8983 6.16997 24.8659 4.972C24.8352 3.76918 23.7732 3.79022 22.6513 3.79022C22.6513 3.04069 22.5688 2.60683 23.3636 2.53398C24.0565 2.46922 24.594 2.69586 24.9064 2.15354C25.4746 1.16441 24.6749 0.272407 23.2794 0.0700471C22.0459 -0.108029 20.8366 0.144515 20.0417 0.719217C19.1367 1.37324 19.1837 2.74281 19.1837 3.79022V3.78699ZM29.831 6.09874C31.267 5.79277 31.649 7.11216 31.7267 8.3247C31.8109 9.62627 31.6685 11.1755 30.375 11.2905C28.8824 11.4232 28.4113 10.324 28.3449 8.97225C28.2737 7.54116 28.6153 6.35776 29.831 6.09874ZM32.1574 13.2137C31.335 13.4841 31.1747 13.9422 29.4425 13.8143C28.4938 13.7431 27.6455 13.4436 26.9672 13.0178C25.745 12.2505 24.7494 10.7352 24.819 8.61286C24.8886 6.51641 25.881 5.05457 27.0401 4.28398C27.7006 3.84527 28.5651 3.55225 29.5105 3.47616C31.2589 3.3337 31.5859 3.92945 32.2529 4.06705C32.97 2.99698 34.6553 3.39036 35.1183 4.50739L35.047 12.9385C34.5646 13.824 33.5124 14.0458 32.7385 13.6751C32.4212 13.5229 32.4164 13.4015 32.1541 13.2169L32.1574 13.2137ZM3.95168 11.1334L8.24008 11.1108C8.41816 11.8781 8.72736 12.9854 9.19684 13.3497C9.9399 13.9244 11.0278 13.7803 11.6446 13.1813C12.4249 12.4221 12.2517 11.713 11.8826 10.6624C11.5944 9.83997 11.3192 9.05481 11.0278 8.23242C10.4547 6.61516 9.88809 5.00438 9.33444 3.42436C8.61404 1.37162 8.64318 0.0959492 6.07402 0.1089C5.00071 0.113757 4.17832 0.324211 3.76551 1.01709C3.36079 1.6954 0.888764 9.05643 0.314063 10.6429C-0.0356144 11.6094 -0.184551 12.4528 0.484045 13.1311C1.26596 13.926 3.03054 14.1397 3.568 12.3946C3.69913 11.9704 3.82379 11.5722 3.95168 11.1334Z" fill="#005AAB"/>
<path fill-rule="evenodd" clip-rule="evenodd" d="M0 21.4748L0.012951 22.8865H64.5268C68.0996 22.8865 71.6757 22.9043 75.247 22.8865C76.6635 22.88 78.1658 22.2406 78.9137 21.2126C79.9951 19.7281 80 19.1226 80 16.9339C79.2051 16.8092 11.6915 16.8999 4.71579 16.9015C2.16929 16.9015 0 18.9235 0 21.4748Z" fill="#ED1C24"/>
<path fill-rule="evenodd" clip-rule="evenodd" d="M74.028 1.404C74.2303 1.89938 74.3404 1.72778 74.3161 2.54045C74.3032 2.98888 74.2287 3.43407 74.1445 3.87117C73.9972 4.65147 73.7689 5.44472 73.5876 6.23635C72.8769 9.33973 71.3762 14.3744 76.1179 13.7722C77.7077 13.5699 79.5532 12.6617 78.5284 10.9117C77.8453 11.305 75.7407 12.7734 75.7407 10.5426C75.7407 9.16328 76.2491 7.83094 76.4401 6.52127C77.9424 6.51803 79.8996 6.8499 79.9968 4.56729C78.9299 4.7826 77.9958 4.87649 76.8529 4.82307C76.9905 3.95211 77.7886 2.05479 77.3094 1.39753C76.6926 0.552473 74.9038 1.18707 74.0263 1.40238L74.028 1.404ZM40.9511 6.50346C41.0887 5.6924 41.6828 4.1998 40.9511 3.67529C40.2776 3.19286 38.7089 3.53282 38.0403 3.91002C38.4483 4.24351 38.3593 4.79878 38.2767 5.45443C38.1019 6.84666 37.6632 8.7877 37.3102 10.1184C37.1224 10.8259 36.4992 12.4771 36.8521 13.1279C37.328 14.007 38.7721 13.756 39.724 13.4484C39.6349 12.7199 39.2545 12.673 40.0235 11.1221C40.3651 10.4357 40.6856 9.78816 41.0272 9.12442C41.3769 8.44449 41.7783 7.8358 42.1604 7.25624C42.3627 6.94865 42.604 6.63621 42.8031 6.39823C42.9326 6.2412 43.0362 6.18778 43.1673 6.04856C43.3551 5.84944 43.3292 5.78954 43.6627 5.75554C43.7809 6.61193 42.8695 10.0083 42.6299 11.0169C42.4453 11.7956 42.0147 12.911 42.6622 13.4695C43.2175 13.9471 44.6518 13.7496 45.2298 13.4015C44.8736 12.4706 45.1488 11.8976 45.5471 11.0768C45.8887 10.3758 46.1914 9.74931 46.5637 9.09043C46.9944 8.32632 48.4756 5.79116 49.1604 5.7604C49.2786 6.09065 48.2814 10.4195 48.1421 11.1691C47.9495 12.2181 48.0045 13.2526 48.8706 13.6217C49.9132 14.0652 50.7599 13.4258 51.4673 13.1506C51.3605 12.9045 51.4835 13.1506 51.341 12.9385C51.2261 12.7685 51.307 12.9385 51.197 12.7216C50.6919 11.7243 51.1711 9.95976 51.3864 8.91397C51.5903 7.92807 52.2347 5.41558 52.1132 4.51224C51.8915 2.85775 50.0459 3.20095 48.814 4.05248C48.2506 4.44101 47.8912 4.86354 47.4833 5.29578C46.9701 5.8381 46.5864 6.46461 46.3047 6.7641C46.3808 5.90933 46.8017 4.97524 46.4391 4.12371C46.1088 3.35151 45.2411 3.16534 44.2649 3.50368C43.0718 3.91812 42.4081 4.76479 41.6634 5.61794C41.5274 5.77335 41.4675 5.85915 41.3186 6.05989L40.9511 6.50832V6.50346ZM59.9518 6.20883C59.7511 6.46623 58.7085 8.50115 57.9849 9.50162C57.666 9.94195 55.6392 13.0389 55.8221 10.2528C55.9063 8.97063 56.6477 4.76641 58.4738 5.08695C59.0615 5.19055 59.7883 5.82839 59.9502 6.20721L59.9518 6.20883ZM59.0258 10.4001C58.7846 10.5992 58.3961 11.2937 58.15 11.5948C57.5219 12.3622 57.6449 12.1452 57.1981 12.6439C56.6558 13.2493 55.5793 13.9746 54.3392 13.7819C52.089 13.4323 52.5293 9.73474 53.261 7.91836C54.3586 5.19217 56.7999 2.6133 59.6928 3.51016C59.8693 3.5652 60.3242 3.79508 60.4035 3.80803C60.6706 3.85174 60.8778 3.61215 61.1644 3.53444C61.8621 3.3418 63.1831 3.56196 63.6655 3.89383L62.9047 5.91419C62.4239 7.38251 62.1357 9.12604 62.0758 10.6818C62.0143 12.2877 62.1875 12.1647 62.4643 13.136C61.8233 13.7026 60.5783 14.041 59.62 13.4484C58.7587 12.9175 58.9951 11.5398 59.0291 10.3985L59.0258 10.4001ZM68.0527 6.58117C68.786 5.58718 70.1329 3.58787 71.4928 3.36446C73.7414 2.99536 72.2083 6.50346 71.0298 7.23681C70.8113 6.94541 70.5895 6.60221 70.0666 6.78515C69.419 7.01179 68.3862 8.63228 68.0624 9.21832C67.6998 9.87558 67.4003 10.4729 67.1008 11.1853C66.4095 12.8381 66.7479 12.6001 66.8547 13.4403C65.9352 13.7576 64.4037 14.0426 63.863 13.204C63.4794 12.6099 64.1269 10.8048 64.3115 10.1071C64.5802 9.08557 64.8311 8.03168 65.0497 6.98912C65.3281 5.6665 65.5531 4.93801 65.1225 3.8485C65.9401 3.61539 67.287 3.11515 68.0543 3.72223C68.867 4.36493 68.0673 5.68917 68.0511 6.57955L68.0527 6.58117Z" fill="#ED1C24"/>
<path fill-rule="evenodd" clip-rule="evenodd" d="M0 25.6192H73.3157C75.145 25.6192 76.4142 25.7778 77.8161 24.902C78.5754 24.4277 79.8834 23.0516 79.8883 21.7808C79.6358 21.9524 79.5062 22.2033 79.2618 22.4186C76.9954 24.426 75.0203 24.0003 71.815 24.0003H0.00485663L0 25.6192Z" fill="#FFD503"/>
</g>
<defs>
<clipPath id="clip0_3802_16619">
<rect width="80" height="25.6304" fill="white"/>
</clipPath>
</defs>
</svg>
